# xmcd
#
# Track frame offsets:
#	150
#	19800
#	35808
#	51519
#	69383
#	86090
#	102168
#	119730
#	136287
#	152744
#	169352
#	186894
#	203984
#	218916
#	237553
#	246544
#	257313
#	268874
#	282903
#	292368
#	301832
#
# Disc length: 4145 seconds
#
# Revision: 1
# Processed by: cddbd v1.5.2PL0 Copyright (c) Steve Scherf et al.
# Submitted via: audiograbber 1.83.01
#
DISCID=53102f15
DTITLE=CDX - 509
DYEAR=2010
DGENRE=Country
TTITLE0=Sara Evans - A Little Bit Stronger
TTITLE1=Lee Brice - Beautiful Every Time
TTITLE2=Troy Olsen - Good Hands
TTITLE3=Gary Allan - Kiss Me When I'm Down
TTITLE4=Margaret Durante - Mississippi's Crying
TTITLE5=Walker Hayes - Pants
TTITLE6=Joe and Rory w Zac Brown Band - This Song's For You
TTITLE7=Braden Gray - A Little Less Lonely
TTITLE8=Larry Chance - For Your Precious Love
TTITLE9=Austin Hicks - I Still Pledge Allegiance
TTITLE10=Brittney L Reed - Redneck Town
TTITLE11=Mike Easterday - Santa Fe
TTITLE12=Landon Michael - This Ain't California
TTITLE13=Lonnie Rodgers - Which Way Do I Choose
TTITLE14=Mel Tillis - You Wouldn't Believe It
TTITLE15=Mel Tillis - Blow It Out With The Hose
TTITLE16=Mel Tillis - Chickens In The Sack
TTITLE17=Katie Armiger - Hear The Music Live
TTITLE18=PSA - PSA
TTITLE19=PSA - PSA
TTITLE20=PSA - PSA
EXTD=
EXTT0=
EXTT1=
EXTT2=
EXTT3=
EXTT4=
EXTT5=
EXTT6=
EXTT7=
EXTT8=
EXTT9=
EXTT10=
EXTT11=
EXTT12=
EXTT13=
EXTT14=
EXTT15=
EXTT16=
EXTT17=
EXTT18=
EXTT19=
EXTT20=
PLAYORDER=
